<svg id="Layer_1" data-name="Layer 1" xmlns="http://www.w3.org/2000/svg" viewBox="0 0 19 26"><defs><style>.cls-1{fill:#fff;}</style></defs><title>Trash icon</title><path class="cls-1" d="M7.46,1.57h4.08V2.3H13V1.47A1.42,1.42,0,0,0,11.64,0H7.36A1.43,1.43,0,0,0,6,1.47V2.3H7.46Z"/><path class="cls-1" d="M16.42,8.52H2.58a.68.68,0,0,0-.65.75L3.09,24.5A1.57,1.57,0,0,0,4.62,26h9.76a1.58,1.58,0,0,0,1.53-1.51L17.07,9.27A.68.68,0,0,0,16.42,8.52ZM5.93,24.38h0a.76.76,0,0,1-.74-.74l-.72-12.5A.74.74,0,1,1,5.9,11l.72,12.5A.77.77,0,0,1,5.93,24.38Zm4.32-.79a.74.74,0,1,1-1.48,0V11.09a.74.74,0,1,1,1.48,0Zm4.32-12.45-.69,12.5a.76.76,0,0,1-.73.74H13.1a.78.78,0,0,1-.69-.83L13.1,11a.74.74,0,1,1,1.47.1Z"/><path class="cls-1" d="M19,6.1l-.49-1.55a.92.92,0,0,0-.88-.68H1.4a.92.92,0,0,0-.88.68L0,6.1a.67.67,0,0,0,.26.75A.58.58,0,0,0,.61,7H18.39a.58.58,0,0,0,.32-.1A.67.67,0,0,0,19,6.1Z"/></svg>