<svg xmlns="http://www.w3.org/2000/svg" viewBox="0 0 169.04 79.36"><title>nrgaming</title><g opacity="0.65"><path d="M33.77,3.37a24.68,24.68,0,0,1,3.67-.26c1.87,0,3.15.39,3.87,1.1A2.81,2.81,0,0,1,42,7a4.61,4.61,0,0,1-1.71,2.83,7.58,7.58,0,0,1-4.76,1.46,6.75,6.75,0,0,1-1.5-.12L33,16.46H31.07Zm.57,6.38a6.42,6.42,0,0,0,1.53.14c2.28,0,3.87-1,4.25-2.83s-.83-2.59-2.91-2.59a10.06,10.06,0,0,0-1.81.13Z" transform="translate(0 -2.5)" fill="#fff"/><path d="M52.49,11.62a6.26,6.26,0,0,1-6.26,5.05c-2.84,0-4.64-1.88-4-4.89a6.23,6.23,0,0,1,6.24-5C51.46,6.73,53.09,8.71,52.49,11.62Zm-8.34.1c-.43,2.08.57,3.66,2.43,3.66a4.36,4.36,0,0,0,4-3.7C50.86,10.07,50.39,8,48.14,8A4.27,4.27,0,0,0,44.15,11.72Z" transform="translate(0 -2.5)" fill="#fff"/><path d="M56.47,6.94l.39,4.84c.09,1.06.16,2,.16,3h.06c.44-1,1-2,1.55-3l2.72-4.86H63l.65,4.76c.15,1.14.25,2.14.29,3.11H64a32.55,32.55,0,0,1,1.43-3.09l2.48-4.78h1.89l-5.34,9.52H62.69L62,11.92a24.6,24.6,0,0,1-.28-3.13h0a32,32,0,0,1-1.6,3.15l-2.62,4.52H55.72l-1.2-9.52Z" transform="translate(0 -2.5)" fill="#fff"/><path d="M71.47,12c-.44,2.34,1,3.31,2.92,3.31a8.19,8.19,0,0,0,3-.5l.07,1.24a10.17,10.17,0,0,1-3.61.59c-3.23,0-4.76-1.92-4.17-4.79a6.17,6.17,0,0,1,6-5.13c3.42,0,3.77,2.73,3.41,4.48a5.62,5.62,0,0,1-.23.8Zm5.85-1.23C77.56,9.68,77.4,8,75.25,8a3.9,3.9,0,0,0-3.51,2.81Z" transform="translate(0 -2.5)" fill="#fff"/><path d="M81.7,9.91c.23-1.12.4-2.08.52-3h1.67l-.32,1.87h.09A4,4,0,0,1,87,6.73a2,2,0,0,1,.53.06l-.33,1.63a3,3,0,0,0-.64-.06,3.34,3.34,0,0,0-3,2.22,5.17,5.17,0,0,0-.25.81l-1,5.07H80.35Z" transform="translate(0 -2.5)" fill="#fff"/><path d="M89.2,12c-.44,2.34,1,3.31,2.92,3.31a8.25,8.25,0,0,0,3-.5l.07,1.24a10.23,10.23,0,0,1-3.62.59c-3.23,0-4.76-1.92-4.17-4.79a6.17,6.17,0,0,1,6-5.13c3.42,0,3.77,2.73,3.41,4.48a5.62,5.62,0,0,1-.23.8Zm5.85-1.23C95.3,9.68,95.13,8,93,8a3.87,3.87,0,0,0-3.5,2.81Z" transform="translate(0 -2.5)" fill="#fff"/><path d="M110,2.5,107.65,14c-.17.84-.35,1.81-.42,2.46h-1.71l.25-1.65h0a5,5,0,0,1-4,1.86c-2.54,0-4.09-1.94-3.49-4.83A6.07,6.07,0,0,1,104,6.73a2.89,2.89,0,0,1,2.87,1.45h0l1.17-5.68Zm-3.62,8.32a3,3,0,0,0,.06-.73,2.15,2.15,0,0,0-2.34-2c-2,0-3.47,1.58-3.9,3.68-.39,1.93.32,3.52,2.38,3.52a3.63,3.63,0,0,0,3.22-2.07,3.38,3.38,0,0,0,.24-.74Z" transform="translate(0 -2.5)" fill="#fff"/><path d="M117.66,3.39a20.83,20.83,0,0,1,3.51-.28c1.88,0,3,.3,3.81,1a2.2,2.2,0,0,1,.73,2.34,4.2,4.2,0,0,1-3.07,2.91v0A2.75,2.75,0,0,1,125,12.68a4.4,4.4,0,0,1-1.78,2.66,9.14,9.14,0,0,1-5.31,1.23,23.4,23.4,0,0,1-2.89-.15Zm-.54,11.77a10.66,10.66,0,0,0,1.57.08c2,0,3.89-.65,4.28-2.58s-1.18-2.55-3.24-2.55h-1.57Zm1.31-6.35h1.71c2,0,3.36-.94,3.63-2.22.32-1.55-.86-2.16-2.77-2.16a9.14,9.14,0,0,0-1.69.12Z" transform="translate(0 -2.5)" fill="#fff"/><path d="M129.39,6.94l1.15,5.62c.11.63.21,1.38.27,1.95h0c.31-.57.68-1.3,1.08-2l3.23-5.58h2l-4.26,6.78c-2,3.27-3.31,4.94-4.82,6a6.7,6.7,0,0,1-2.58,1.12l-.17-1.45a6.81,6.81,0,0,0,1.84-.85,7,7,0,0,0,2-1.93,1.44,1.44,0,0,0,.24-.41,1.32,1.32,0,0,0,0-.45l-2.08-8.77Z" transform="translate(0 -2.5)" fill="#fff"/></g><path d="M169,27.58H11.37L.07,9.93,0,62.08H17.66L27.77,76.82V62.08H169Z" transform="translate(0 -2.5)" fill="#fff"/><polygon points="0 61.73 16.94 61.73 29.2 79.36 29.2 61.73 169.04 61.73 169.04 59.22 26.58 59.22 26.25 68.85 19.42 59.22 0 59.22 0 61.73" opacity="0.28" style="isolation:isolate"/><polygon points="69.52 44.72 73.69 44.72 71.61 38.5 69.52 44.72" fill="#db3e3f"/><path d="M26.33,36H25.14l0,7.09h1.15c2.41,0,5.14-.47,5.14-3.56S28.74,36,26.33,36" transform="translate(0 -2.5)" fill="#db3e3f"/><path d="M169,27.58H11.37L.07,9.93,0,62.08H17.66L27.77,76.82V62.08H169ZM32.12,59.31l-6.91-9.14.11,18.27-4.17-6.36L10.43,45.53l-.07,13.78H2.91L3,27.58V20.72L17.62,43.48l0-7.26V30.35H28.74c5.64,0,9.92,2.67,9.92,8.74,0,3.92-2.19,7.31-6.25,8l9.24,12.2Zm19.6-3.42c-6.55,0-11.11-4.5-11.11-11,0-6.69,4.53-11.18,11.29-11.18A10,10,0,0,1,59.74,37a10.06,10.06,0,0,1,1.58,2.52L55.75,42.4,55.6,42a4.09,4.09,0,0,0-3.92-2.88c-2.37,0-4.74,2-4.74,5.87s2.44,5.79,4.82,5.79c2,0,3.3-1,3.66-2.59l-4.13,0,0-5H62.47v.44c0,2.87-.25,5.5-2.12,8.12a10.1,10.1,0,0,1-8.63,4.14m50.21-.65-1.3-10.32L96.32,55.24H93.66L89.52,44.92,88,55.24H76.18l-1.3-3.45H68.34L67,55.24H60.49l8.06-20.86h6.3l7.37,19.5,3.31-19.5h5.79l3.77,9.89L99,34.38h5.87L108,55.21Zm13.45,0H109.3V34.38h6.08Zm23.38,0h-5.87L124,43.81V55.24H117.9V34.38h5.82l8.92,11.44V34.38h6.08Zm23.3-11.58c0,2.88-.25,5.5-2.12,8.13a10.12,10.12,0,0,1-8.63,4.1c-6.55,0-11.11-4.5-11.11-11,0-6.69,4.53-11.18,11.29-11.18a10,10,0,0,1,7.84,3.3A11.52,11.52,0,0,1,161,39.56l-5.61,2.84-.15-.43a4.09,4.09,0,0,0-3.92-2.88c-2.37,0-4.74,2-4.74,5.87s2.44,5.79,4.85,5.79c2,0,3.31-1,3.67-2.59l-4.14,0,0-5H162.1Z" transform="translate(0 -2.5)" fill="#db3e3f"/><path d="M36.87,70.17v.9h1.58v1.18H36.87v.94h1.65v1.19H35.46V69h3.06V70.2l-1.65,0Z" transform="translate(0 -2.5)" fill="#fff"/><path d="M45.93,69h1.4l2.55,3.31h0V69.05h1.41v5.36H49.88l-2.55-3.27h0v3.27h-1.4Z" transform="translate(0 -2.5)" fill="#fff"/><path d="M60.1,70.17v.9h1.58v1.18H60.1v.94h1.65v1.19h-3V69h3V70.2l-1.65,0Z" transform="translate(0 -2.5)" fill="#fff"/><path d="M73.62,74.34H71.9l-1.3-2h0v2H69.2V69h2c1.08,0,1.87.51,1.87,1.62a1.48,1.48,0,0,1-1.19,1.51Zm-3.05-3h.14c.43,0,.93-.07.93-.65s-.5-.64-.93-.64h-.14Z" transform="translate(0 -2.5)" fill="#fff"/><path d="M85.85,71.36a3.41,3.41,0,0,1-.54,2.12,2.51,2.51,0,0,1-2.19,1A2.69,2.69,0,0,1,80.28,72v-.25a2.74,2.74,0,0,1,2.91-2.88,2.46,2.46,0,0,1,2.41,1.51l-1.3.57a1.19,1.19,0,0,0-1.15-.86,1.7,1.7,0,0,0,0,3.35,1,1,0,0,0,1.11-.9v0H83.19V71.36Z" transform="translate(0 -2.5)" fill="#fff"/><path d="M94.41,73.41l-.39.93H92.54l2-5.36H96.1l2,5.36H96.6l-.36-.93Zm1-2.77h0l-.57,1.69H96Z" transform="translate(0 -2.5)" fill="#fff"/><path d="M105.7,69h1.37l1.12,2.84L109.34,69h1.4l.79,5.36h-1.4l-.4-3.1h0l-1.26,3.1h-.57l-1.22-3.1h0l-.44,3.1h-1.4Z" transform="translate(0 -2.5)" fill="#fff"/><path d="M120.05,74.34h-1.4V69h1.4Z" transform="translate(0 -2.5)" fill="#fff"/><path d="M127.5,69h1.4l2.56,3.27h0V69h1.4v5.36h-1.4L128.9,71.1h0v3.28h-1.4Z" transform="translate(0 -2.5)" fill="#fff"/><path d="M145.63,71.36a3.48,3.48,0,0,1-.54,2.12,2.55,2.55,0,0,1-2.23,1A2.72,2.72,0,0,1,140,72v-.25a2.74,2.74,0,0,1,2.91-2.88,2.46,2.46,0,0,1,2.41,1.51l-1.33.57a1.2,1.2,0,0,0-1.15-.86,1.7,1.7,0,0,0,0,3.35,1,1,0,0,0,1.12-.9v0h-1.12V71.36Z" transform="translate(0 -2.5)" fill="#fff"/></svg>