<?xml version="1.0" encoding="utf-8"?>
<!-- Generator: Adobe Illustrator 23.0.5, SVG Export Plug-In . SVG Version: 6.00 Build 0)  -->
<svg version="1.1" id="Layer_1" xmlns="http://www.w3.org/2000/svg" xmlns:xlink="http://www.w3.org/1999/xlink" x="0px" y="0px"
	 viewBox="0 0 1457.9 980.3" style="enable-background:new 0 0 1457.9 980.3;" xml:space="preserve">
<style type="text/css">
	.st0{fill:url(#SVGID_1_);}
	.st1{fill:url(#SVGID_2_);}
	.st2{fill:url(#SVGID_3_);}
	.st3{fill:url(#SVGID_4_);}
	.st4{fill:url(#SVGID_5_);}
	.st5{fill:url(#SVGID_6_);}
	.st6{fill:url(#SVGID_7_);}
	.st7{fill:url(#SVGID_8_);}
	.st8{fill:url(#SVGID_9_);}
	.st9{fill:url(#SVGID_10_);}
	.st10{fill:url(#SVGID_11_);}
	.st11{fill:url(#SVGID_12_);}
	.st12{fill:url(#SVGID_13_);}
	.st13{fill:url(#SVGID_14_);}
	.st14{fill:url(#SVGID_15_);}
	.st15{fill:url(#SVGID_16_);}
	.st16{fill:url(#SVGID_17_);}
	.st17{fill:url(#SVGID_18_);}
	.st18{fill:url(#SVGID_19_);}
	.st19{fill:url(#SVGID_20_);}
	.st20{fill:url(#SVGID_21_);}
	.st21{fill:url(#SVGID_22_);}
	.st22{fill:url(#SVGID_23_);}
	.st23{fill:url(#SVGID_24_);}
	.st24{fill:url(#SVGID_25_);}
	.st25{fill:url(#SVGID_26_);}
</style>
<title>logo</title>
<g>
	<linearGradient id="SVGID_1_" gradientUnits="userSpaceOnUse" x1="265.0368" y1="208.5172" x2="264.0192" y2="11.1003">
		<stop  offset="0" style="stop-color:#FFC173"/>
		<stop  offset="3.000000e-02" style="stop-color:#F6B768"/>
		<stop  offset="0.12" style="stop-color:#DB9A49"/>
		<stop  offset="0.22" style="stop-color:#C88632"/>
		<stop  offset="0.3" style="stop-color:#BD7925"/>
		<stop  offset="0.38" style="stop-color:#B97520"/>
		<stop  offset="0.49" style="stop-color:#CF9448"/>
		<stop  offset="0.64" style="stop-color:#E9BA77"/>
		<stop  offset="0.75" style="stop-color:#F9D195"/>
		<stop  offset="0.81" style="stop-color:#FFDAA0"/>
		<stop  offset="0.83" style="stop-color:#FCD699"/>
		<stop  offset="0.87" style="stop-color:#F5C984"/>
		<stop  offset="0.91" style="stop-color:#E9B563"/>
		<stop  offset="0.96" style="stop-color:#D89A35"/>
		<stop  offset="1" style="stop-color:#C87E07"/>
	</linearGradient>
	<path class="st0" d="M191.9,155.5l28.5-31c13.4,9.7,30.3,16.5,44.2,16.5c15.1,0,21.5-4.5,21.5-12.1c0-8.1-9.6-10.8-25.6-16.5
		l-23.6-8.9c-20.4-7.4-38.1-22.8-38.1-47.5c0-29.1,29.1-53,70.4-53c21.5,0,45.4,7.4,62.9,22.8l-25,28.4
		c-12.8-8.1-23.9-12.3-37.8-12.3c-12.2,0-19.8,3.9-19.8,11.6c0,8.1,10.8,11,27.9,17.1l23,8.1c23.6,8.4,37,23.1,37,46.7
		c0,28.9-26.8,54.6-73.9,54.6C239.7,180,212.3,172.1,191.9,155.5z"/>
	<linearGradient id="SVGID_2_" gradientUnits="userSpaceOnUse" x1="424.779" y1="207.6915" x2="423.7612" y2="10.2428">
		<stop  offset="0" style="stop-color:#FFC173"/>
		<stop  offset="3.000000e-02" style="stop-color:#F6B768"/>
		<stop  offset="0.12" style="stop-color:#DB9A49"/>
		<stop  offset="0.22" style="stop-color:#C88632"/>
		<stop  offset="0.3" style="stop-color:#BD7925"/>
		<stop  offset="0.38" style="stop-color:#B97520"/>
		<stop  offset="0.49" style="stop-color:#CF9448"/>
		<stop  offset="0.64" style="stop-color:#E9BA77"/>
		<stop  offset="0.75" style="stop-color:#F9D195"/>
		<stop  offset="0.81" style="stop-color:#FFDAA0"/>
		<stop  offset="0.83" style="stop-color:#FCD699"/>
		<stop  offset="0.87" style="stop-color:#F5C984"/>
		<stop  offset="0.91" style="stop-color:#E9B563"/>
		<stop  offset="0.96" style="stop-color:#D89A35"/>
		<stop  offset="1" style="stop-color:#C87E07"/>
	</linearGradient>
	<path class="st1" d="M351.3,6.1h69.3c41.3,0,76.8,13.7,76.8,56.7c0,41.8-36.1,59.9-75.7,59.9h-20.4v54.1h-50.1V6.1z M419.4,87
		c19.8,0,29.1-8.9,29.1-24.2s-11.1-21-30.3-21h-16.9V87H419.4z"/>
	<linearGradient id="SVGID_3_" gradientUnits="userSpaceOnUse" x1="536.5648" y1="207.1153" x2="535.547" y2="9.6666">
		<stop  offset="0" style="stop-color:#FFC173"/>
		<stop  offset="3.000000e-02" style="stop-color:#F6B768"/>
		<stop  offset="0.12" style="stop-color:#DB9A49"/>
		<stop  offset="0.22" style="stop-color:#C88632"/>
		<stop  offset="0.3" style="stop-color:#BD7925"/>
		<stop  offset="0.38" style="stop-color:#B97520"/>
		<stop  offset="0.49" style="stop-color:#CF9448"/>
		<stop  offset="0.64" style="stop-color:#E9BA77"/>
		<stop  offset="0.75" style="stop-color:#F9D195"/>
		<stop  offset="0.81" style="stop-color:#FFDAA0"/>
		<stop  offset="0.83" style="stop-color:#FCD699"/>
		<stop  offset="0.87" style="stop-color:#F5C984"/>
		<stop  offset="0.91" style="stop-color:#E9B563"/>
		<stop  offset="0.96" style="stop-color:#D89A35"/>
		<stop  offset="1" style="stop-color:#C87E07"/>
	</linearGradient>
	<path class="st2" d="M510.9,6.1H561v170.7h-50.1V6.1z"/>
	<linearGradient id="SVGID_4_" gradientUnits="userSpaceOnUse" x1="653.9827" y1="206.4816" x2="652.9646" y2="8.9727">
		<stop  offset="0" style="stop-color:#FFC173"/>
		<stop  offset="3.000000e-02" style="stop-color:#F6B768"/>
		<stop  offset="0.12" style="stop-color:#DB9A49"/>
		<stop  offset="0.22" style="stop-color:#C88632"/>
		<stop  offset="0.3" style="stop-color:#BD7925"/>
		<stop  offset="0.38" style="stop-color:#B97520"/>
		<stop  offset="0.49" style="stop-color:#CF9448"/>
		<stop  offset="0.64" style="stop-color:#E9BA77"/>
		<stop  offset="0.75" style="stop-color:#F9D195"/>
		<stop  offset="0.81" style="stop-color:#FFDAA0"/>
		<stop  offset="0.83" style="stop-color:#FCD699"/>
		<stop  offset="0.87" style="stop-color:#F5C984"/>
		<stop  offset="0.91" style="stop-color:#E9B563"/>
		<stop  offset="0.96" style="stop-color:#D89A35"/>
		<stop  offset="1" style="stop-color:#C87E07"/>
	</linearGradient>
	<path class="st3" d="M576.5,6.1h51.2l41.9,76.1l18,38.3h1.2c-2.3-18.4-6.4-44.1-6.4-65.1V6.1h47.7v170.7H679l-41.9-76.4l-18-38.1
		h-1.2c2.3,19.4,6.4,44.1,6.4,65.1v49.4h-47.7V6.1z"/>
	<linearGradient id="SVGID_5_" gradientUnits="userSpaceOnUse" x1="821.4179" y1="205.5717" x2="820.3998" y2="8.0628">
		<stop  offset="0" style="stop-color:#FFC173"/>
		<stop  offset="3.000000e-02" style="stop-color:#F6B768"/>
		<stop  offset="0.12" style="stop-color:#DB9A49"/>
		<stop  offset="0.22" style="stop-color:#C88632"/>
		<stop  offset="0.3" style="stop-color:#BD7925"/>
		<stop  offset="0.38" style="stop-color:#B97520"/>
		<stop  offset="0.49" style="stop-color:#CF9448"/>
		<stop  offset="0.64" style="stop-color:#E9BA77"/>
		<stop  offset="0.75" style="stop-color:#F9D195"/>
		<stop  offset="0.81" style="stop-color:#FFDAA0"/>
		<stop  offset="0.83" style="stop-color:#FCD699"/>
		<stop  offset="0.87" style="stop-color:#F5C984"/>
		<stop  offset="0.91" style="stop-color:#E9B563"/>
		<stop  offset="0.96" style="stop-color:#D89A35"/>
		<stop  offset="1" style="stop-color:#C87E07"/>
	</linearGradient>
	<path class="st4" d="M744,6.1h51.2l41.9,76.1l18,38.3h1.2c-2.3-18.4-6.4-44.1-6.4-65.1V6.1h47.7v170.7h-51.2l-41.9-76.4l-18-38.1
		h-1.2c2.3,19.4,6.4,44.1,6.4,65.1v49.4H744V6.1z"/>
	<linearGradient id="SVGID_6_" gradientUnits="userSpaceOnUse" x1="939.6445" y1="204.8682" x2="938.6267" y2="7.4195">
		<stop  offset="0" style="stop-color:#FFC173"/>
		<stop  offset="3.000000e-02" style="stop-color:#F6B768"/>
		<stop  offset="0.12" style="stop-color:#DB9A49"/>
		<stop  offset="0.22" style="stop-color:#C88632"/>
		<stop  offset="0.3" style="stop-color:#BD7925"/>
		<stop  offset="0.38" style="stop-color:#B97520"/>
		<stop  offset="0.49" style="stop-color:#CF9448"/>
		<stop  offset="0.64" style="stop-color:#E9BA77"/>
		<stop  offset="0.75" style="stop-color:#F9D195"/>
		<stop  offset="0.81" style="stop-color:#FFDAA0"/>
		<stop  offset="0.83" style="stop-color:#FCD699"/>
		<stop  offset="0.87" style="stop-color:#F5C984"/>
		<stop  offset="0.91" style="stop-color:#E9B563"/>
		<stop  offset="0.96" style="stop-color:#D89A35"/>
		<stop  offset="1" style="stop-color:#C87E07"/>
	</linearGradient>
	<path class="st5" d="M914,6.1h50.1v170.7H914V6.1z"/>
	<linearGradient id="SVGID_7_" gradientUnits="userSpaceOnUse" x1="1055.8943" y1="204.2339" x2="1054.8762" y2="6.725">
		<stop  offset="0" style="stop-color:#FFC173"/>
		<stop  offset="3.000000e-02" style="stop-color:#F6B768"/>
		<stop  offset="0.12" style="stop-color:#DB9A49"/>
		<stop  offset="0.22" style="stop-color:#C88632"/>
		<stop  offset="0.3" style="stop-color:#BD7925"/>
		<stop  offset="0.38" style="stop-color:#B97520"/>
		<stop  offset="0.49" style="stop-color:#CF9448"/>
		<stop  offset="0.64" style="stop-color:#E9BA77"/>
		<stop  offset="0.75" style="stop-color:#F9D195"/>
		<stop  offset="0.81" style="stop-color:#FFDAA0"/>
		<stop  offset="0.83" style="stop-color:#FCD699"/>
		<stop  offset="0.87" style="stop-color:#F5C984"/>
		<stop  offset="0.91" style="stop-color:#E9B563"/>
		<stop  offset="0.96" style="stop-color:#D89A35"/>
		<stop  offset="1" style="stop-color:#C87E07"/>
	</linearGradient>
	<path class="st6" d="M978.5,6.1h51.2l41.9,76.1l18,38.3h1.2c-2.3-18.4-6.4-44.1-6.4-65.1V6.1h47.7v170.7h-51.2l-41.9-76.4l-18-38.1
		h-1.2c2.3,19.4,6.4,44.1,6.4,65.1v49.4h-47.7V6.1z"/>
	<linearGradient id="SVGID_8_" gradientUnits="userSpaceOnUse" x1="1224.4825" y1="203.3059" x2="1223.4648" y2="5.8851">
		<stop  offset="0" style="stop-color:#FFC173"/>
		<stop  offset="3.000000e-02" style="stop-color:#F6B768"/>
		<stop  offset="0.12" style="stop-color:#DB9A49"/>
		<stop  offset="0.22" style="stop-color:#C88632"/>
		<stop  offset="0.3" style="stop-color:#BD7925"/>
		<stop  offset="0.38" style="stop-color:#B97520"/>
		<stop  offset="0.49" style="stop-color:#CF9448"/>
		<stop  offset="0.64" style="stop-color:#E9BA77"/>
		<stop  offset="0.75" style="stop-color:#F9D195"/>
		<stop  offset="0.81" style="stop-color:#FFDAA0"/>
		<stop  offset="0.83" style="stop-color:#FCD699"/>
		<stop  offset="0.87" style="stop-color:#F5C984"/>
		<stop  offset="0.91" style="stop-color:#E9B563"/>
		<stop  offset="0.96" style="stop-color:#D89A35"/>
		<stop  offset="1" style="stop-color:#C87E07"/>
	</linearGradient>
	<path class="st7" d="M1144.1,92.8c0-57.2,43.7-89.8,94.3-89.8c27.9,0,48.3,10.5,61.7,22.6l-26.2,28.9c-9.3-7.4-18.6-12.6-33.8-12.6
		c-25.6,0-44.8,18.4-44.8,49.4c0,32,15.7,49.9,49.5,49.9c5.2,0,11.1-1.1,14.6-3.2v-23.6h-27.9V77.6h72.2V159
		c-13.4,11.6-37.3,21-64,21C1186.6,180,1144.1,151.1,1144.1,92.8z"/>
	<g>
		<linearGradient id="SVGID_9_" gradientUnits="userSpaceOnUse" x1="264.0033" y1="-75.5854" x2="264.0033" y2="164.0656">
			<stop  offset="0" style="stop-color:#6A3C00"/>
			<stop  offset="5.000000e-02" style="stop-color:#845108"/>
			<stop  offset="0.12" style="stop-color:#A36A12"/>
			<stop  offset="0.19" style="stop-color:#BA7D1A"/>
			<stop  offset="0.26" style="stop-color:#CB8A1F"/>
			<stop  offset="0.35" style="stop-color:#D59222"/>
			<stop  offset="0.45" style="stop-color:#D89523"/>
			<stop  offset="0.61" style="stop-color:#D59221"/>
			<stop  offset="0.74" style="stop-color:#CB8A1D"/>
			<stop  offset="0.85" style="stop-color:#BA7C15"/>
			<stop  offset="0.96" style="stop-color:#A2680A"/>
			<stop  offset="1" style="stop-color:#986005"/>
		</linearGradient>
		<path class="st8" d="M263.5,183c-26.7,0-54.1-9.4-73.5-25.1l-2.5-2l32.5-35.3l2.2,1.6c13.6,9.9,29.9,16,42.5,16
			c18.6,0,18.6-6.8,18.6-9.1c0-5.1-6-7.4-19.5-12.3c-1.3-0.5-2.7-1-4.1-1.5l-23.6-8.9c-25.4-9.2-40.1-27.5-40.1-50.3
			c0-31.9,31.6-56,73.4-56c24,0,48.2,8.8,64.9,23.6l2.2,2l-28.7,32.5l-2.2-1.4c-13.3-8.4-23.8-11.9-36.2-11.9
			c-5.1,0-16.8,0.8-16.8,8.6c0,5,7.3,7.8,21.3,12.6c1.5,0.5,3.1,1.1,4.7,1.6l23,8.1c25.9,9.2,39,25.9,39,49.6
			c0,15.6-7.2,30-20.4,40.5C306,177,286.4,183,263.5,183z M196.3,155.2c18.1,13.7,43,21.8,67.2,21.8c21.6,0,39.8-5.5,52.8-15.8
			c11.7-9.3,18.2-22.1,18.2-35.8c0-21.2-11.4-35.5-35-43.9l-23-8.1c-1.6-0.6-3.2-1.1-4.6-1.6c-15.2-5.3-25.3-8.8-25.3-18.3
			c0-4.4,2.2-14.5,22.8-14.5c13,0,24,3.3,37.3,11.5L328,26.1C312.5,13.5,290.8,6,269.3,6c-38.5,0-67.4,21.5-67.4,50.1
			c0,28.6,25.3,40.8,36.2,44.7l23.6,8.9c1.4,0.5,2.7,1,4.1,1.5c14.1,5,23.5,8.4,23.5,17.9c0,6.9-4.3,15.1-24.5,15.1
			c-13.1,0-29.7-5.9-43.8-15.6L196.3,155.2z"/>
		<linearGradient id="SVGID_10_" gradientUnits="userSpaceOnUse" x1="424.3256" y1="-75.5854" x2="424.3256" y2="164.0656">
			<stop  offset="0" style="stop-color:#6A3C00"/>
			<stop  offset="5.000000e-02" style="stop-color:#845108"/>
			<stop  offset="0.12" style="stop-color:#A36A12"/>
			<stop  offset="0.19" style="stop-color:#BA7D1A"/>
			<stop  offset="0.26" style="stop-color:#CB8A1F"/>
			<stop  offset="0.35" style="stop-color:#D59222"/>
			<stop  offset="0.45" style="stop-color:#D89523"/>
			<stop  offset="0.61" style="stop-color:#D59221"/>
			<stop  offset="0.74" style="stop-color:#CB8A1D"/>
			<stop  offset="0.85" style="stop-color:#BA7C15"/>
			<stop  offset="0.96" style="stop-color:#A2680A"/>
			<stop  offset="1" style="stop-color:#986005"/>
		</linearGradient>
		<path class="st9" d="M404.3,179.8h-56V3.2h72.3c23.4,0,42.1,4.3,55.5,12.7c16.1,10.1,24.3,25.9,24.3,47c0,20.3-8.4,37-24.3,48
			c-13.7,9.6-33,14.8-54.4,14.8h-17.4V179.8z M354.3,173.8h44.1v-54.1h23.4c35.1,0,72.7-14.9,72.7-56.9c0-44.4-40.2-53.7-73.9-53.7
			h-66.3V173.8z M419.4,90h-21V38.9h19.9c8.2,0,33.3,0,33.3,24C451.5,80.4,440.1,90,419.4,90z M404.3,84h15.1
			c17.3,0,26.1-7.1,26.1-21.2c0-8.4-3.1-18-27.3-18h-13.9V84z"/>
		<linearGradient id="SVGID_11_" gradientUnits="userSpaceOnUse" x1="535.9688" y1="-75.5854" x2="535.9688" y2="164.0656">
			<stop  offset="0" style="stop-color:#6A3C00"/>
			<stop  offset="5.000000e-02" style="stop-color:#845108"/>
			<stop  offset="0.12" style="stop-color:#A36A12"/>
			<stop  offset="0.19" style="stop-color:#BA7D1A"/>
			<stop  offset="0.26" style="stop-color:#CB8A1F"/>
			<stop  offset="0.35" style="stop-color:#D59222"/>
			<stop  offset="0.45" style="stop-color:#D89523"/>
			<stop  offset="0.61" style="stop-color:#D59221"/>
			<stop  offset="0.74" style="stop-color:#CB8A1D"/>
			<stop  offset="0.85" style="stop-color:#BA7C15"/>
			<stop  offset="0.96" style="stop-color:#A2680A"/>
			<stop  offset="1" style="stop-color:#986005"/>
		</linearGradient>
		<path class="st10" d="M564,179.8h-56V3.2h56V179.8z M513.9,173.8H558V9.1h-44.1V173.8z"/>
		<linearGradient id="SVGID_12_" gradientUnits="userSpaceOnUse" x1="653.3898" y1="-75.5854" x2="653.3898" y2="164.0656">
			<stop  offset="0" style="stop-color:#6A3C00"/>
			<stop  offset="5.000000e-02" style="stop-color:#845108"/>
			<stop  offset="0.12" style="stop-color:#A36A12"/>
			<stop  offset="0.19" style="stop-color:#BA7D1A"/>
			<stop  offset="0.26" style="stop-color:#CB8A1F"/>
			<stop  offset="0.35" style="stop-color:#D59222"/>
			<stop  offset="0.45" style="stop-color:#D89523"/>
			<stop  offset="0.61" style="stop-color:#D59221"/>
			<stop  offset="0.74" style="stop-color:#CB8A1D"/>
			<stop  offset="0.85" style="stop-color:#BA7C15"/>
			<stop  offset="0.96" style="stop-color:#A2680A"/>
			<stop  offset="1" style="stop-color:#986005"/>
		</linearGradient>
		<path class="st11" d="M733.2,179.8h-56l-42.8-78.1l-11.6-24.4c2.1,16.1,4.5,34.2,4.5,50.2v52.4h-53.7V3.2h56L672.4,81l11.5,24.4
			c-2.1-15.7-4.4-34.2-4.4-49.9V3.2h53.7V179.8z M680.8,173.8h46.5V9.1h-41.8v46.4c0,17,2.8,37.6,5,54.1c0.5,3.7,1,7.3,1.4,10.6
			l0.4,3.4h-6.5l-18.8-40L626,9.1h-46.5v164.7h41.8v-46.4c0-16-2.4-34.5-4.6-50.8c-0.6-4.9-1.3-9.5-1.8-14l-0.4-3.3h6.4L639.8,99
			L680.8,173.8z"/>
		<linearGradient id="SVGID_13_" gradientUnits="userSpaceOnUse" x1="820.8298" y1="-75.5854" x2="820.8298" y2="164.0656">
			<stop  offset="0" style="stop-color:#6A3C00"/>
			<stop  offset="5.000000e-02" style="stop-color:#845108"/>
			<stop  offset="0.12" style="stop-color:#A36A12"/>
			<stop  offset="0.19" style="stop-color:#BA7D1A"/>
			<stop  offset="0.26" style="stop-color:#CB8A1F"/>
			<stop  offset="0.35" style="stop-color:#D59222"/>
			<stop  offset="0.45" style="stop-color:#D89523"/>
			<stop  offset="0.61" style="stop-color:#D59221"/>
			<stop  offset="0.74" style="stop-color:#CB8A1D"/>
			<stop  offset="0.85" style="stop-color:#BA7C15"/>
			<stop  offset="0.96" style="stop-color:#A2680A"/>
			<stop  offset="1" style="stop-color:#986005"/>
		</linearGradient>
		<path class="st12" d="M900.7,179.8h-56l-42.8-78.1l-11.6-24.4c2.1,16.1,4.5,34.2,4.5,50.2v52.4H741V3.2h56L839.8,81l11.5,24.4
			c-2.1-15.7-4.4-34.2-4.4-49.9V3.2h53.7V179.8z M848.2,173.8h46.5V9.1h-41.8v46.4c0,17,2.8,37.6,5,54.1c0.5,3.7,1,7.3,1.4,10.6
			l0.4,3.4h-6.5l-18.8-40l-41-74.5H747v164.7h41.8v-46.4c0-16-2.4-34.5-4.6-50.8c-0.6-4.9-1.3-9.5-1.8-14l-0.4-3.3h6.4L807.2,99
			L848.2,173.8z"/>
		<linearGradient id="SVGID_14_" gradientUnits="userSpaceOnUse" x1="939.06" y1="-75.5854" x2="939.06" y2="164.0656">
			<stop  offset="0" style="stop-color:#6A3C00"/>
			<stop  offset="5.000000e-02" style="stop-color:#845108"/>
			<stop  offset="0.12" style="stop-color:#A36A12"/>
			<stop  offset="0.19" style="stop-color:#BA7D1A"/>
			<stop  offset="0.26" style="stop-color:#CB8A1F"/>
			<stop  offset="0.35" style="stop-color:#D59222"/>
			<stop  offset="0.45" style="stop-color:#D89523"/>
			<stop  offset="0.61" style="stop-color:#D59221"/>
			<stop  offset="0.74" style="stop-color:#CB8A1D"/>
			<stop  offset="0.85" style="stop-color:#BA7C15"/>
			<stop  offset="0.96" style="stop-color:#A2680A"/>
			<stop  offset="1" style="stop-color:#986005"/>
		</linearGradient>
		<path class="st13" d="M967.1,179.8h-56V3.2h56V179.8z M917,173.8h44.1V9.1H917V173.8z"/>
		<linearGradient id="SVGID_15_" gradientUnits="userSpaceOnUse" x1="1055.3131" y1="-75.5854" x2="1055.3131" y2="164.0656">
			<stop  offset="0" style="stop-color:#6A3C00"/>
			<stop  offset="5.000000e-02" style="stop-color:#845108"/>
			<stop  offset="0.12" style="stop-color:#A36A12"/>
			<stop  offset="0.19" style="stop-color:#BA7D1A"/>
			<stop  offset="0.26" style="stop-color:#CB8A1F"/>
			<stop  offset="0.35" style="stop-color:#D59222"/>
			<stop  offset="0.45" style="stop-color:#D89523"/>
			<stop  offset="0.61" style="stop-color:#D59221"/>
			<stop  offset="0.74" style="stop-color:#CB8A1D"/>
			<stop  offset="0.85" style="stop-color:#BA7C15"/>
			<stop  offset="0.96" style="stop-color:#A2680A"/>
			<stop  offset="1" style="stop-color:#986005"/>
		</linearGradient>
		<path class="st14" d="M1135.1,179.8h-56l-42.8-78.1l-11.6-24.4c2.1,16.1,4.5,34.2,4.5,50.2v52.4h-53.7V3.2h56l42.9,77.9l11.5,24.4
			c-2.1-15.7-4.4-34.2-4.4-49.9V3.2h53.7V179.8z M1082.7,173.8h46.5V9.1h-41.8v46.4c0,17,2.8,37.6,5,54.1c0.5,3.7,1,7.3,1.4,10.6
			l0.4,3.4h-6.5l-18.8-40l-41-74.5h-46.5v164.7h41.8v-46.4c0-16-2.4-34.5-4.6-50.8c-0.6-4.9-1.3-9.5-1.8-14l-0.4-3.3h6.4l18.8,39.7
			L1082.7,173.8z"/>
		<linearGradient id="SVGID_16_" gradientUnits="userSpaceOnUse" x1="1223.8741" y1="-75.5854" x2="1223.8741" y2="164.0656">
			<stop  offset="0" style="stop-color:#6A3C00"/>
			<stop  offset="5.000000e-02" style="stop-color:#845108"/>
			<stop  offset="0.12" style="stop-color:#A36A12"/>
			<stop  offset="0.19" style="stop-color:#BA7D1A"/>
			<stop  offset="0.26" style="stop-color:#CB8A1F"/>
			<stop  offset="0.35" style="stop-color:#D59222"/>
			<stop  offset="0.45" style="stop-color:#D89523"/>
			<stop  offset="0.61" style="stop-color:#D59221"/>
			<stop  offset="0.74" style="stop-color:#CB8A1D"/>
			<stop  offset="0.85" style="stop-color:#BA7C15"/>
			<stop  offset="0.96" style="stop-color:#A2680A"/>
			<stop  offset="1" style="stop-color:#986005"/>
		</linearGradient>
		<path class="st15" d="M1239.6,183c-28,0-52.1-7.8-69.5-22.4c-18.9-15.9-28.9-39.3-28.9-67.7c0-28,10.1-51.7,29.2-68.6
			C1187.9,8.6,1212.1,0,1238.4,0c31.3,0,51.9,12.7,63.7,23.4l2.2,2l-30.1,33.2l-2.2-1.7c-9.4-7.4-18-12-31.9-12
			c-25.4,0-41.8,18.2-41.8,46.4c0,31.6,15.2,46.9,46.5,46.9c4.4,0,8.7-0.8,11.6-2v-18.8h-27.9V74.6h78.2v85.8l-1,0.9
			C1290,174.6,1264.8,183,1239.6,183z M1238.4,6c-44,0-91.3,27.2-91.3,86.8c0,62.1,47.8,84.2,92.5,84.2c27.6,0,49.4-9.9,61-19.4v-77
			h-66.2v30.8h27.9v28.3l-1.4,0.9c-3.7,2.2-9.7,3.6-16.1,3.6c-34.3,0-52.5-18.3-52.5-52.9c0-31.3,19.2-52.4,47.8-52.4
			c14.5,0,24.1,4.5,33.4,11.5l22.3-24.6C1284.5,16.3,1265.9,6,1238.4,6z"/>
	</g>
	<g>
		<g>
			<g>
				
					<linearGradient id="SVGID_17_" gradientUnits="userSpaceOnUse" x1="231.0779" y1="116.3629" x2="231.0779" y2="735.7119" gradientTransform="matrix(1 0 0 -1 0 980)">
					<stop  offset="0" style="stop-color:#FFC173"/>
					<stop  offset="3.000000e-02" style="stop-color:#F6B768"/>
					<stop  offset="0.12" style="stop-color:#DB9A49"/>
					<stop  offset="0.22" style="stop-color:#C88632"/>
					<stop  offset="0.3" style="stop-color:#BD7925"/>
					<stop  offset="0.38" style="stop-color:#B97520"/>
					<stop  offset="0.49" style="stop-color:#CF9448"/>
					<stop  offset="0.64" style="stop-color:#E9BA77"/>
					<stop  offset="0.75" style="stop-color:#F9D195"/>
					<stop  offset="0.81" style="stop-color:#FFDAA0"/>
					<stop  offset="0.83" style="stop-color:#FCD699"/>
					<stop  offset="0.87" style="stop-color:#F5C984"/>
					<stop  offset="0.91" style="stop-color:#E9B563"/>
					<stop  offset="0.96" style="stop-color:#D89A35"/>
					<stop  offset="1" style="stop-color:#C87E07"/>
				</linearGradient>
				<path class="st16" d="M310,448.6c-0.9,7.2-1.4,10.8-2.3,18c-0.1,3-0.2,4.4-0.3,7.4c-0.4,3.3-0.7,5-1.1,8.3
					c0.2-5.9,0.3-8.9,0.5-14.8c-0.4-7.3-0.6-11-1-18.4c-8.2-68.1-16-136.2-23.6-204.4c-26.4,0.1-52.7,0.2-79.1,0.2
					c-13,83.1-25.3,166.3-36.8,249.6c-0.8,9.5-1.3,14.2-2.1,23.7c-0.1,3.3-0.1,4.9-0.2,8.2c-0.6,4.2-0.9,6.3-1.4,10.4
					c0.2-7.6,0.2-11.4,0.4-19c0.1-7.2-0.1-14.3-0.7-21.1c-15-88.6-26.2-152.2-44.8-251.6c-34.9,0.1-79.1-0.5-114-0.4
					c35.2,211.5,74.3,404.4,110.7,618.8c23.2-22.7,47-44.6,71.8-65.5c14.1-91.2,29.1-182.3,45.2-273.2c0.9-2.8,1.7-9.5,2.6-20.2
					c0.1-4.5,0.2-6.8,0.3-11.3c0.5-2.3,0.8-3.4,1.4-5.7c-0.2,6.5-0.3,9.8-0.5,16.4c0.4,7.5,0.6,11.2,1,18.7
					c22.4,96.9,30.6,127.3,49,201.7c25-17,57-35,83.3-49.9C398.5,526,417,419.4,458.5,244.3c-35,0.1-70,0.1-104.9,0.2
					C338.4,312.4,323.9,380.4,310,448.6z"/>
				
					<linearGradient id="SVGID_18_" gradientUnits="userSpaceOnUse" x1="231.1853" y1="111.2494" x2="231.1853" y2="738.2086" gradientTransform="matrix(1 0 0 -1 0 980)">
					<stop  offset="0" style="stop-color:#6A3C00"/>
					<stop  offset="5.000000e-02" style="stop-color:#845108"/>
					<stop  offset="0.12" style="stop-color:#A36A12"/>
					<stop  offset="0.19" style="stop-color:#BA7D1A"/>
					<stop  offset="0.26" style="stop-color:#CB8A1F"/>
					<stop  offset="0.35" style="stop-color:#D59222"/>
					<stop  offset="0.45" style="stop-color:#D89523"/>
					<stop  offset="0.61" style="stop-color:#D59221"/>
					<stop  offset="0.74" style="stop-color:#CB8A1D"/>
					<stop  offset="0.85" style="stop-color:#BA7C15"/>
					<stop  offset="0.96" style="stop-color:#A2680A"/>
					<stop  offset="1" style="stop-color:#986005"/>
				</linearGradient>
				<path class="st17" d="M112.7,868.8l-0.8-4.7C94.5,762,76.3,663.4,58.7,568.1c-19.2-104.2-39.1-212-57.6-322.9l-0.5-2.9l2.9,0
					c17.7-0.1,38.1,0.1,57.8,0.2c19.2,0.1,39,0.3,56.1,0.2l2.1,0l0.4,2c19,101.3,30.3,165.8,44.2,247.6
					c11.6-83.7,23.9-167.1,36.6-247.8l0.3-2.1l2.1,0c26.4-0.1,52.7-0.2,79.1-0.2l2.2,0l0.2,2.2c7.9,71.3,15.5,137.1,23.2,201.2
					c13.8-67.4,28.3-135.3,43.2-201.7l0.4-1.9l2,0c35-0.1,70-0.2,104.9-0.2l3.2,0l-0.7,3.1C430.3,374,412.1,466.8,392.8,565
					c-6.9,35-14,71.2-21.9,110.1l-0.2,1.1l-3.6,2c-25.1,14.2-56.4,32-80.5,48.3l-3,2l-0.9-3.5C278,706,274,690,270.2,674.6
					c-11-44-19.7-78.8-36.1-150c-0.1,0.3-0.2,0.6-0.2,0.9c-15.7,88.6-30.9,180.5-45.2,273l-0.1,0.9l-0.7,0.6
					c-24.2,20.5-48.3,42.5-71.7,65.4L112.7,868.8z M6.5,247.3c18.3,109.8,38,216.6,57.1,319.9C81,661.1,98.9,758.1,116,858.5
					c22.1-21.6,44.9-42.3,67.8-61.7c14.2-92.3,29.4-183.9,45.1-272.3l0.1-0.3c0.6-1.8,1.4-6.6,2.5-19.6l0.3-11.5l6.4-6.1l-0.5,17.2
					l1,18.4c16.6,71.8,25.3,106.7,36.4,150.9c3.6,14.5,7.4,29.5,11.7,47.1c23.8-15.9,53.7-32.8,77.9-46.5l1.6-0.9
					c7.8-38.5,14.8-74.3,21.7-109c19.2-97.5,37.3-189.5,67.5-317.2c-33.3,0.1-66.5,0.1-99.8,0.2c-14.9,66.5-29.4,134.5-43.2,202
					c-0.9,7.1-1.3,10.7-2.2,17.8l-0.3,7.5l-1.1,8.3l-5-0.4l0.5-14.7l-0.9-18.2c-7.7-64.4-15.4-130.5-23.3-202.1
					c-24.9,0.1-49.8,0.2-74.7,0.2c-12.6,80.7-24.9,163.9-36.5,247.4c-0.8,9.4-1.2,14.1-2.1,23.6l-0.2,8.4l-1.4,10.4l-5-0.4l0.4-19
					c0.1-7.1-0.1-14-0.7-20.7c-14.1-83.1-25.4-147.7-44.4-249.5c-16.7,0-35.7-0.1-54.1-0.2C42.8,247.4,23.5,247.3,6.5,247.3z"/>
			</g>
			<g>
				
					<linearGradient id="SVGID_19_" gradientUnits="userSpaceOnUse" x1="608.4199" y1="341.9684" x2="608.4199" y2="735.9628" gradientTransform="matrix(1 0 0 -1 0 980)">
					<stop  offset="0" style="stop-color:#FFC173"/>
					<stop  offset="3.000000e-02" style="stop-color:#F6B768"/>
					<stop  offset="0.12" style="stop-color:#DB9A49"/>
					<stop  offset="0.22" style="stop-color:#C88632"/>
					<stop  offset="0.3" style="stop-color:#BD7925"/>
					<stop  offset="0.38" style="stop-color:#B97520"/>
					<stop  offset="0.49" style="stop-color:#CF9448"/>
					<stop  offset="0.64" style="stop-color:#E9BA77"/>
					<stop  offset="0.75" style="stop-color:#F9D195"/>
					<stop  offset="0.81" style="stop-color:#FFDAA0"/>
					<stop  offset="0.83" style="stop-color:#FCD699"/>
					<stop  offset="0.87" style="stop-color:#F5C984"/>
					<stop  offset="0.91" style="stop-color:#E9B563"/>
					<stop  offset="0.96" style="stop-color:#D89A35"/>
					<stop  offset="1" style="stop-color:#C87E07"/>
				</linearGradient>
				<path class="st18" d="M657.7,369.6c-30.4,1.4-60.8,3.5-91.1,6.2c1.2-43.9,2.4-87.8,3.6-131.7c-35.3,0-70.6,0.1-106,0.1
					c-4.8,131.3-9.6,262.5-14.4,393.8c36-14,72.6-25.7,110.1-35.1c1.2-44.8,2.5-89.5,3.7-134.3c31.1-4.6,62.3-8.2,93.7-10.6
					c-0.6,42.7-1.2,85.3-1.8,128c37.2-3.9,74.2-5.3,111.5-4.4c-0.5-112.5-1-225.1-1.5-337.6c-35.3,0-70.6,0-106,0
					C658.9,285.9,658.3,327.8,657.7,369.6z"/>
				
					<linearGradient id="SVGID_20_" gradientUnits="userSpaceOnUse" x1="608.3574" y1="338.2764" x2="608.3574" y2="738.4543" gradientTransform="matrix(1 0 0 -1 0 980)">
					<stop  offset="0" style="stop-color:#6A3C00"/>
					<stop  offset="5.000000e-02" style="stop-color:#845108"/>
					<stop  offset="0.12" style="stop-color:#A36A12"/>
					<stop  offset="0.19" style="stop-color:#BA7D1A"/>
					<stop  offset="0.26" style="stop-color:#CB8A1F"/>
					<stop  offset="0.35" style="stop-color:#D59222"/>
					<stop  offset="0.45" style="stop-color:#D89523"/>
					<stop  offset="0.61" style="stop-color:#D59221"/>
					<stop  offset="0.74" style="stop-color:#CB8A1D"/>
					<stop  offset="0.85" style="stop-color:#BA7C15"/>
					<stop  offset="0.96" style="stop-color:#A2680A"/>
					<stop  offset="1" style="stop-color:#986005"/>
				</linearGradient>
				<path class="st19" d="M447.2,641.7l14.6-399.9l2.4,0c35.3-0.1,70.6-0.1,106-0.1l2.6,0l-3.6,131.5c28.5-2.5,57.5-4.4,86.1-5.8
					l1.8-125.7l2.5,0c35.3,0,70.6,0,106,0l2.5,0l1.5,342.7l-2.6-0.1c-36.9-1-74.4,0.5-111.2,4.4l-2.8,0.3l1.8-128.1
					c-29.5,2.3-59.3,5.7-88.7,10.1l-3.7,134.1l-1.8,0.5c-36.8,9.2-73.7,21-109.8,35L447.2,641.7z M466.6,246.8l-14.2,387.6
					c34.6-13.3,69.9-24.5,105-33.3l3.7-134.5l2.1-0.3c31-4.6,62.6-8.2,93.8-10.6l2.7-0.2L658,583.3c35.3-3.6,71.1-5,106.5-4.2
					L763,246.5c-33.7,0-67.4,0-101,0L660.2,372l-2.3,0.1c-30.3,1.4-60.9,3.5-91,6.2l-2.8,0.2l3.6-131.9
					C534,246.7,500.3,246.7,466.6,246.8z"/>
			</g>
			<g>
				
					<linearGradient id="SVGID_21_" gradientUnits="userSpaceOnUse" x1="901.4571" y1="349.5099" x2="901.4571" y2="735.9557" gradientTransform="matrix(1 0 0 -1 0 980)">
					<stop  offset="0" style="stop-color:#FFC173"/>
					<stop  offset="3.000000e-02" style="stop-color:#F6B768"/>
					<stop  offset="0.12" style="stop-color:#DB9A49"/>
					<stop  offset="0.22" style="stop-color:#C88632"/>
					<stop  offset="0.3" style="stop-color:#BD7925"/>
					<stop  offset="0.38" style="stop-color:#B97520"/>
					<stop  offset="0.49" style="stop-color:#CF9448"/>
					<stop  offset="0.64" style="stop-color:#E9BA77"/>
					<stop  offset="0.75" style="stop-color:#F9D195"/>
					<stop  offset="0.81" style="stop-color:#FFDAA0"/>
					<stop  offset="0.83" style="stop-color:#FCD699"/>
					<stop  offset="0.87" style="stop-color:#F5C984"/>
					<stop  offset="0.91" style="stop-color:#E9B563"/>
					<stop  offset="0.96" style="stop-color:#D89A35"/>
					<stop  offset="1" style="stop-color:#C87E07"/>
				</linearGradient>
				<path class="st20" d="M901.3,461.6c31,4.4,61.7,9.8,92.3,16.4c-1.1-30.7-2.1-61.4-3.2-92.1c-30.2-3.9-60.5-7.2-90.9-9.9
					c-0.4-14.9-0.8-29.7-1.1-44.6c33.7,2,67.4,4.5,101,7.6c-1.1-31.6-2.2-63.1-3.3-94.7c-68.5-0.1-137-0.2-205.4-0.2
					c1,113,2,226,3,339c75.1,5.9,147.7,21.9,218.6,47.4c-1.1-32-2.3-64-3.4-96c-35.1-9.6-70.4-17.5-106.3-23.7
					C902.2,494.4,901.8,478,901.3,461.6z"/>
				
					<linearGradient id="SVGID_22_" gradientUnits="userSpaceOnUse" x1="901.5104" y1="345.9208" x2="901.5104" y2="738.4479" gradientTransform="matrix(1 0 0 -1 0 980)">
					<stop  offset="0" style="stop-color:#6A3C00"/>
					<stop  offset="5.000000e-02" style="stop-color:#845108"/>
					<stop  offset="0.12" style="stop-color:#A36A12"/>
					<stop  offset="0.19" style="stop-color:#BA7D1A"/>
					<stop  offset="0.26" style="stop-color:#CB8A1F"/>
					<stop  offset="0.35" style="stop-color:#D59222"/>
					<stop  offset="0.45" style="stop-color:#D89523"/>
					<stop  offset="0.61" style="stop-color:#D59221"/>
					<stop  offset="0.74" style="stop-color:#CB8A1D"/>
					<stop  offset="0.85" style="stop-color:#BA7C15"/>
					<stop  offset="0.96" style="stop-color:#A2680A"/>
					<stop  offset="1" style="stop-color:#986005"/>
				</linearGradient>
				<path class="st21" d="M1014.9,634.1l-3.5-1.2c-71.3-25.6-144.6-41.5-217.9-47.3l-2.3-0.2l-3.1-343.8l2.5,0
					c68.4,0,137.6,0.1,205.5,0.2l2.4,0l3.5,99.9l-2.8-0.3c-32.5-3-65.6-5.5-98.2-7.4l1,39.7c29.5,2.6,59.4,5.9,88.8,9.7l2.1,0.3
					l3.4,97.4l-3.1-0.7c-29.5-6.3-59.5-11.6-89.2-15.9l1.1,44.2c34.9,6.1,70,14,104.5,23.4l1.8,0.5L1014.9,634.1z M796.2,580.8
					c71.8,5.8,143.6,21.3,213.5,46.1l-3.2-90.5c-34.4-9.3-69.5-17.1-104.3-23.1l-2-0.3l-1.4-54.2l2.9,0.4
					c29.8,4.2,59.8,9.5,89.4,15.7l-3-86.8c-29.4-3.8-59.2-7-88.7-9.6l-2.2-0.2l-1.3-49.6l2.7,0.2c32.7,1.9,65.7,4.4,98.3,7.3
					l-3.2-89.5c-66.3-0.1-133.7-0.2-200.5-0.2L796.2,580.8z"/>
			</g>
			<g>
				
					<linearGradient id="SVGID_23_" gradientUnits="userSpaceOnUse" x1="1133.1844" y1="221.8716" x2="1133.1844" y2="735.7154" gradientTransform="matrix(1 0 0 -1 0 980)">
					<stop  offset="0" style="stop-color:#FFC173"/>
					<stop  offset="3.000000e-02" style="stop-color:#F6B768"/>
					<stop  offset="0.12" style="stop-color:#DB9A49"/>
					<stop  offset="0.22" style="stop-color:#C88632"/>
					<stop  offset="0.3" style="stop-color:#BD7925"/>
					<stop  offset="0.38" style="stop-color:#B97520"/>
					<stop  offset="0.49" style="stop-color:#CF9448"/>
					<stop  offset="0.64" style="stop-color:#E9BA77"/>
					<stop  offset="0.75" style="stop-color:#F9D195"/>
					<stop  offset="0.81" style="stop-color:#FFDAA0"/>
					<stop  offset="0.83" style="stop-color:#FCD699"/>
					<stop  offset="0.87" style="stop-color:#F5C984"/>
					<stop  offset="0.91" style="stop-color:#E9B563"/>
					<stop  offset="0.96" style="stop-color:#D89A35"/>
					<stop  offset="1" style="stop-color:#C87E07"/>
				</linearGradient>
				<path class="st22" d="M1136.7,518.5c30.2,10.7,60,22.5,89.4,35.2c-1.3-40.6-2.6-81.2-3.9-121.7c-29.6-7.7-59.3-14.9-89.1-21.4
					c-0.7-18.7-1.4-37.5-2.1-56.2c33.3,4.8,66.5,10.2,99.7,16.1c-1.3-41.9-2.6-83.8-3.9-125.7c-68.5-0.2-136.9-0.4-205.4-0.5
					c4.8,131.8,9.7,263.5,14.5,395.3c74.7,30.8,144.1,70.8,209.3,118.6c-1.3-42.5-2.6-85.1-4-127.6c-33.3-18.3-67.3-35-102.1-50.1
					C1138.2,559.8,1137.4,539.1,1136.7,518.5z"/>
				
					<linearGradient id="SVGID_24_" gradientUnits="userSpaceOnUse" x1="1133.2166" y1="216.8443" x2="1133.2166" y2="738.2115" gradientTransform="matrix(1 0 0 -1 0 980)">
					<stop  offset="0" style="stop-color:#6A3C00"/>
					<stop  offset="5.000000e-02" style="stop-color:#845108"/>
					<stop  offset="0.12" style="stop-color:#A36A12"/>
					<stop  offset="0.19" style="stop-color:#BA7D1A"/>
					<stop  offset="0.26" style="stop-color:#CB8A1F"/>
					<stop  offset="0.35" style="stop-color:#D59222"/>
					<stop  offset="0.45" style="stop-color:#D89523"/>
					<stop  offset="0.61" style="stop-color:#D59221"/>
					<stop  offset="0.74" style="stop-color:#CB8A1D"/>
					<stop  offset="0.85" style="stop-color:#BA7C15"/>
					<stop  offset="0.96" style="stop-color:#A2680A"/>
					<stop  offset="1" style="stop-color:#986005"/>
				</linearGradient>
				<path class="st23" d="M1247.7,763.2l-4.1-3c-66.9-49-137.1-88.8-208.8-118.3l-1.5-0.6l-14.7-399.5l2.6,0
					c67.9,0.1,137,0.3,205.4,0.5l2.4,0l4.1,131.2l-3-0.5c-31.9-5.7-64.4-10.9-96.6-15.6l1.9,51.3c29.1,6.4,58.5,13.4,87.3,21
					l1.8,0.5l4.1,127.5l-3.6-1.6c-28.2-12.2-57.1-23.6-85.8-33.9l2.1,56.7c33.9,14.8,67.9,31.5,100.9,49.6l1.2,0.7L1247.7,763.2z
					 M1038.2,637.9c70.1,29,138.7,67.7,204.2,115.2l-3.8-121.1c-33-18-66.8-34.6-100.7-49.3l-1.4-0.6l-2.5-67.2l3.5,1.2
					c28.8,10.2,57.7,21.6,86,33.7l-3.7-115.9c-28.8-7.5-58.1-14.5-87.2-20.9l-1.9-0.4l-2.3-61.1l3,0.4c32.2,4.7,64.8,9.9,96.7,15.6
					l-3.8-120.2c-66.8-0.2-134.2-0.4-200.4-0.5L1038.2,637.9z"/>
			</g>
			<g>
				
					<linearGradient id="SVGID_25_" gradientUnits="userSpaceOnUse" x1="1353.6119" y1="20.0615" x2="1353.6119" y2="735.1395" gradientTransform="matrix(1 0 0 -1 0 980)">
					<stop  offset="0" style="stop-color:#FFC173"/>
					<stop  offset="3.000000e-02" style="stop-color:#F6B768"/>
					<stop  offset="0.12" style="stop-color:#DB9A49"/>
					<stop  offset="0.22" style="stop-color:#C88632"/>
					<stop  offset="0.3" style="stop-color:#BD7925"/>
					<stop  offset="0.38" style="stop-color:#B97520"/>
					<stop  offset="0.49" style="stop-color:#CF9448"/>
					<stop  offset="0.64" style="stop-color:#E9BA77"/>
					<stop  offset="0.75" style="stop-color:#F9D195"/>
					<stop  offset="0.81" style="stop-color:#FFDAA0"/>
					<stop  offset="0.83" style="stop-color:#FCD699"/>
					<stop  offset="0.87" style="stop-color:#F5C984"/>
					<stop  offset="0.91" style="stop-color:#E9B563"/>
					<stop  offset="0.96" style="stop-color:#D89A35"/>
					<stop  offset="1" style="stop-color:#C87E07"/>
				</linearGradient>
				<path class="st24" d="M1356.9,245.2c-35-0.1-70.1-0.3-105.1-0.4c5.1,176.7,10.2,353.4,15.3,530.1c69.3,55,131.5,117.2,188.2,185
					c0-61.6,0-123.1-0.1-184.7c-29.4-25.2-59.7-49.2-91.1-72C1361.8,550.6,1359.4,397.9,1356.9,245.2z"/>
				
					<linearGradient id="SVGID_26_" gradientUnits="userSpaceOnUse" x1="1353.5764" y1="13.1997" x2="1353.5764" y2="737.6389" gradientTransform="matrix(1 0 0 -1 0 980)">
					<stop  offset="0" style="stop-color:#6A3C00"/>
					<stop  offset="5.000000e-02" style="stop-color:#845108"/>
					<stop  offset="0.12" style="stop-color:#A36A12"/>
					<stop  offset="0.19" style="stop-color:#BA7D1A"/>
					<stop  offset="0.26" style="stop-color:#CB8A1F"/>
					<stop  offset="0.35" style="stop-color:#D59222"/>
					<stop  offset="0.45" style="stop-color:#D89523"/>
					<stop  offset="0.61" style="stop-color:#D59221"/>
					<stop  offset="0.74" style="stop-color:#CB8A1D"/>
					<stop  offset="0.85" style="stop-color:#BA7C15"/>
					<stop  offset="0.96" style="stop-color:#A2680A"/>
					<stop  offset="1" style="stop-color:#986005"/>
				</linearGradient>
				<path class="st25" d="M1457.9,966.8l-4.4-5.3c-59.6-71.2-121-131.6-187.8-184.6l-0.9-0.7l-15.5-533.9l2.6,0
					c35,0.1,70.1,0.2,105.1,0.4l2.4,0l7.3,459.2c30.6,22.3,60.9,46.3,90.3,71.4l0.9,0.7L1457.9,966.8z M1269.6,773.8
					c65.1,51.7,125.1,110.5,183.3,179.3l-0.1-176.7c-29.3-25.1-59.6-49-90.1-71.2l-1-0.7l0-1.2l-7.2-455.5
					c-33.4-0.1-66.7-0.2-100.1-0.4L1269.6,773.8z"/>
			</g>
		</g>
	</g>
</g>
</svg>
